<svg width="413" height="711" viewBox="0 0 413 711" fill="none" xmlns="http://www.w3.org/2000/svg">
<path d="M66.5 105C23.0046 108.962 15.543 63.5446 0 11.4727V391H413V29.3991C413 29.3991 401.707 104.549 372.5 123.5C343.293 142.451 341.263 49.3747 313.081 6.35101C284.898 -36.6727 286.763 153.883 228.021 129.275C186.215 111.761 215.198 22.1446 171.144 11.4727C133.175 2.27489 104.807 101.51 66.5 105Z" fill="#F05A2A"/>
<path d="M355 690.501C398.501 686.539 397.457 578.455 413 630.527V251H0V612.601C0 612.601 47.7928 687.452 77 668.501C106.207 649.55 100.49 482.164 137 529.501C162.059 561.991 146.479 678.226 177.5 706.501C208.521 734.776 198.446 593.329 242.5 604.001C280.468 613.199 316.687 693.99 355 690.501Z" fill="#F05A2A"/>
</svg>
