<svg width="1047" height="333" viewBox="0 0 1047 333" fill="none" xmlns="http://www.w3.org/2000/svg">
<path d="M86.2797 47.8811C32.4633 49.688 82.4999 -5.24412 34 18.0124C-14.5 41.269 3.99998 178.3 3.99998 178.3H515V13.4063C515 13.4063 501.028 47.6756 464.89 56.3173C428.752 64.959 426.241 22.5154 391.371 2.89613C356.501 -16.7231 358.809 70.1721 286.128 58.9506C234.402 50.9644 270.261 10.0982 215.754 5.23167C168.776 1.03737 133.676 46.2898 86.2797 47.8811Z" fill="#F05A2A"/>
<path d="M443.237 314.876C497.061 313.069 499.5 285.691 541.5 299.599L515 114.459H4V279.353C4 324.088 63.1335 313.485 99.2712 304.844C135.409 296.202 128.335 219.872 173.508 241.458C204.513 256.274 185.237 309.278 223.619 322.172C262.001 335.066 249.535 270.564 304.042 275.431C351.02 279.625 395.833 316.467 443.237 314.876Z" fill="#F05A2A"/>
<path d="M597.28 57.0014C543.463 58.8084 538 4.33216 517 12.3124C496 20.2926 515 187.42 515 187.42H1026C1026 187.42 1054 80.258 1026 22.5266C998 -35.2048 1012.03 56.796 975.89 65.4377C939.752 74.0793 937.241 31.6357 902.371 12.0164C867.501 -7.60285 869.809 79.2924 797.128 68.0709C745.402 60.0847 781.261 19.2185 726.754 14.352C679.776 10.1577 644.676 55.4101 597.28 57.0014Z" fill="#F05A2A"/>
<path d="M954.237 323.996C1008.06 322.189 996.5 269.502 1026 296.647C1055.5 323.793 1049.5 75.0138 1031 74.1017C1012.5 73.1897 515 123.579 515 123.579V288.473C515 288.473 574.133 322.605 610.271 313.964C646.409 305.322 639.335 228.992 684.508 250.578C715.513 265.394 696.237 318.399 734.619 331.292C773.001 344.186 760.535 279.685 815.042 284.551C862.02 288.745 906.833 325.587 954.237 323.996Z" fill="#F05A2A"/>
</svg>
