<svg width="413" height="215" viewBox="0 0 413 215" fill="none" xmlns="http://www.w3.org/2000/svg">
<path d="M66.5 31.7848C23.0046 32.9842 15.543 19.2357 0 3.47292V118.36H413V8.89945C413 8.89945 401.707 31.6484 372.5 37.3849C343.293 43.1215 341.263 14.9463 313.081 1.92253C284.898 -11.1013 286.763 46.5821 228.021 39.133C186.215 33.8315 215.198 6.70344 171.144 3.47292C133.175 0.688636 104.807 30.7284 66.5 31.7848Z" fill="#F05A2A"/>
<path d="M355 209.023C398.501 207.824 397.457 175.105 413 190.868V75.9807H0V185.442C0 185.442 47.7928 208.1 77 202.363C106.207 196.627 100.49 145.957 137 160.286C162.059 170.121 146.479 205.307 177.5 213.866C208.521 222.425 198.446 179.608 242.5 182.838C280.468 185.623 316.687 210.079 355 209.023Z" fill="#F05A2A"/>
</svg>
