<svg width="201" height="215" viewBox="0 0 201 215" fill="none" xmlns="http://www.w3.org/2000/svg">
<path d="M32.3644 31.7848C11.1959 32.9842 7.56452 19.2357 0 3.47292V118.36H201V8.89945C201 8.89945 195.504 31.6484 181.289 37.3849C167.075 43.1215 166.087 14.9463 152.371 1.92253C138.655 -11.1013 139.563 46.5821 110.974 39.133C90.6277 33.8315 104.733 6.70344 83.2928 3.47292C64.8142 0.688636 51.0075 30.7284 32.3644 31.7848Z" fill="#F05A2A"/>
<path d="M172.772 209.023C193.944 207.824 193.435 175.105 201 190.868V75.9807H0V185.442C0 185.442 23.2599 208.1 37.4746 202.363C51.6892 196.627 48.9068 145.957 66.6756 160.286C78.8712 170.121 71.2888 205.307 86.3862 213.866C101.484 222.425 96.5804 179.608 118.021 182.838C136.499 185.623 154.126 210.079 172.772 209.023Z" fill="#F05A2A"/>
</svg>
